<svg xmlns="http://www.w3.org/2000/svg" fill="none" viewBox="0 0 1780 480" height="480" width="1780">
<path fill="#FF682C" d="M595.338 161.6V247.2H703.738V290.2H595.338V408H541.338V118.8H723.738V161.6H595.338ZM832.931 199.6C848.131 199.6 861.931 202.067 874.331 207C886.865 211.933 897.531 218.933 906.331 228C915.265 237.067 922.131 248.133 926.931 261.2C931.731 274.267 934.131 288.867 934.131 305C934.131 321.267 931.731 335.933 926.931 349C922.131 362.067 915.265 373.2 906.331 382.4C897.531 391.6 886.865 398.667 874.331 403.6C861.931 408.533 848.131 411 832.931 411C817.598 411 803.665 408.533 791.131 403.6C778.598 398.667 767.865 391.6 758.931 382.4C750.131 373.2 743.265 362.067 738.331 349C733.531 335.933 731.131 321.267 731.131 305C731.131 288.867 733.531 274.267 738.331 261.2C743.265 248.133 750.131 237.067 758.931 228C767.865 218.933 778.598 211.933 791.131 207C803.665 202.067 817.598 199.6 832.931 199.6ZM832.931 373C849.998 373 862.598 367.267 870.731 355.8C878.998 344.333 883.131 327.533 883.131 305.4C883.131 283.267 878.998 266.4 870.731 254.8C862.598 243.2 849.998 237.4 832.931 237.4C815.598 237.4 802.731 243.267 794.331 255C786.065 266.6 781.931 283.4 781.931 305.4C781.931 327.4 786.065 344.2 794.331 355.8C802.731 367.267 815.598 373 832.931 373ZM1145.64 408H1098.04C1094.44 408 1091.51 407.067 1089.24 405.2C1087.11 403.333 1085.31 401.2 1083.84 398.8L1040.44 327.4C1039.78 329.667 1038.98 331.8 1038.04 333.8C1037.24 335.8 1036.31 337.667 1035.24 339.4L996.844 398.8C995.377 401.067 993.577 403.2 991.444 405.2C989.311 407.067 986.644 408 983.444 408H939.244L1009.64 302.2L942.044 202.8H989.644C993.244 202.8 995.911 203.333 997.644 204.4C999.377 205.333 1000.91 206.933 1002.24 209.2L1045.24 277.6C1046.71 273.067 1048.78 268.6 1051.44 264.2L1086.04 210.2C1088.98 205.267 1092.78 202.8 1097.44 202.8H1142.84L1075.44 300L1145.64 408ZM1332.84 171.4C1331.24 174.2 1329.5 176.267 1327.64 177.6C1325.9 178.8 1323.7 179.4 1321.04 179.4C1318.24 179.4 1315.17 178.4 1311.84 176.4C1308.64 174.267 1304.77 171.933 1300.24 169.4C1295.7 166.867 1290.37 164.6 1284.24 162.6C1278.24 160.467 1271.1 159.4 1262.84 159.4C1255.37 159.4 1248.84 160.333 1243.24 162.2C1237.64 163.933 1232.9 166.4 1229.04 169.6C1225.3 172.8 1222.5 176.667 1220.64 181.2C1218.77 185.6 1217.84 190.467 1217.84 195.8C1217.84 202.6 1219.7 208.267 1223.44 212.8C1227.3 217.333 1232.37 221.2 1238.64 224.4C1244.9 227.6 1252.04 230.467 1260.04 233C1268.04 235.533 1276.24 238.267 1284.64 241.2C1293.04 244 1301.24 247.333 1309.24 251.2C1317.24 254.933 1324.37 259.733 1330.64 265.6C1336.9 271.333 1341.9 278.4 1345.64 286.8C1349.5 295.2 1351.44 305.4 1351.44 317.4C1351.44 330.467 1349.17 342.733 1344.64 354.2C1340.24 365.533 1333.7 375.467 1325.04 384C1316.5 392.4 1306.04 399.067 1293.64 404C1281.24 408.8 1267.04 411.2 1251.04 411.2C1241.84 411.2 1232.77 410.267 1223.84 408.4C1214.9 406.667 1206.3 404.133 1198.04 400.8C1189.9 397.467 1182.24 393.467 1175.04 388.8C1167.84 384.133 1161.44 378.933 1155.84 373.2L1171.64 347.4C1172.97 345.533 1174.7 344 1176.84 342.8C1178.97 341.467 1181.24 340.8 1183.64 340.8C1186.97 340.8 1190.57 342.2 1194.44 345C1198.3 347.667 1202.9 350.667 1208.24 354C1213.57 357.333 1219.77 360.4 1226.84 363.2C1234.04 365.867 1242.64 367.2 1252.64 367.2C1267.97 367.2 1279.84 363.6 1288.24 356.4C1296.64 349.067 1300.84 338.6 1300.84 325C1300.84 317.4 1298.9 311.2 1295.04 306.4C1291.3 301.6 1286.3 297.6 1280.04 294.4C1273.77 291.067 1266.64 288.267 1258.64 286C1250.64 283.733 1242.5 281.267 1234.24 278.6C1225.97 275.933 1217.84 272.733 1209.84 269C1201.84 265.267 1194.7 260.4 1188.44 254.4C1182.17 248.4 1177.1 240.933 1173.24 232C1169.5 222.933 1167.64 211.8 1167.64 198.6C1167.64 188.067 1169.7 177.8 1173.84 167.8C1178.1 157.8 1184.24 148.933 1192.24 141.2C1200.24 133.467 1210.1 127.267 1221.84 122.6C1233.57 117.933 1247.04 115.6 1262.24 115.6C1279.3 115.6 1295.04 118.267 1309.44 123.6C1323.84 128.933 1336.1 136.4 1346.24 146L1332.84 171.4ZM1521.99 281.8C1521.99 275.4 1521.05 269.4 1519.19 263.8C1517.45 258.067 1514.79 253.067 1511.19 248.8C1507.59 244.533 1502.99 241.2 1497.39 238.8C1491.92 236.267 1485.52 235 1478.19 235C1463.92 235 1452.65 239.067 1444.39 247.2C1436.25 255.333 1431.05 266.867 1428.79 281.8H1521.99ZM1427.79 311.6C1428.59 322.133 1430.45 331.267 1433.39 339C1436.32 346.6 1440.19 352.933 1444.99 358C1449.79 362.933 1455.45 366.667 1461.99 369.2C1468.65 371.6 1475.99 372.8 1483.99 372.8C1491.99 372.8 1498.85 371.867 1504.59 370C1510.45 368.133 1515.52 366.067 1519.79 363.8C1524.19 361.533 1527.99 359.467 1531.19 357.6C1534.52 355.733 1537.72 354.8 1540.79 354.8C1544.92 354.8 1547.99 356.333 1549.99 359.4L1564.19 377.4C1558.72 383.8 1552.59 389.2 1545.79 393.6C1538.99 397.867 1531.85 401.333 1524.39 404C1517.05 406.533 1509.52 408.333 1501.79 409.4C1494.19 410.467 1486.79 411 1479.59 411C1465.32 411 1452.05 408.667 1439.79 404C1427.52 399.2 1416.85 392.2 1407.79 383C1398.72 373.667 1391.59 362.2 1386.39 348.6C1381.19 334.867 1378.59 319 1378.59 301C1378.59 287 1380.85 273.867 1385.39 261.6C1389.92 249.2 1396.39 238.467 1404.79 229.4C1413.32 220.2 1423.65 212.933 1435.79 207.6C1448.05 202.267 1461.85 199.6 1477.19 199.6C1490.12 199.6 1502.05 201.667 1512.99 205.8C1523.92 209.933 1533.32 216 1541.19 224C1549.05 231.867 1555.19 241.6 1559.59 253.2C1564.12 264.667 1566.39 277.8 1566.39 292.6C1566.39 300.067 1565.59 305.133 1563.99 307.8C1562.39 310.333 1559.32 311.6 1554.79 311.6H1427.79ZM1653.46 110.8V408H1604.06V110.8H1653.46ZM1752.68 110.8V408H1703.28V110.8H1752.68Z"></path>
<path fill="#FF682C" d="M106.42 28.0805L118.351 12.9668L102.236 0L90.6118 17.1796C76.0838 38.6517 54.4047 82.1227 41.2791 128.724C34.6859 152.132 30.0333 177.078 29.8034 200.95C29.6245 219.53 32.1212 238.273 39.111 255.27C38.0307 256.174 36.8479 257.132 35.566 258.135C30.0016 262.486 24.1665 266.456 20.6362 268.69L0 281.745L220.325 479.748V480L220.465 479.874L220.606 480V479.748L440.93 281.745L420.294 268.69C416.764 266.456 410.929 262.486 405.365 258.135C404.083 257.132 402.9 256.174 401.819 255.27C408.809 238.273 411.306 219.53 411.127 200.95C410.897 177.078 406.245 152.132 399.651 128.724C386.526 82.1227 364.847 38.6517 350.319 17.1796L338.695 0L322.579 12.9668L334.508 28.0774C322.579 12.9668 322.572 12.9723 322.566 12.9778L322.551 12.9896L322.519 13.0157L322.443 13.0775C322.387 13.1231 322.321 13.1774 322.245 13.2404C322.093 13.3664 321.9 13.5274 321.671 13.7236C321.211 14.116 320.6 14.6495 319.854 15.3264C318.363 16.6799 316.332 18.6087 313.9 21.1307C309.037 26.173 302.553 33.6013 295.562 43.5581C281.559 63.4992 265.555 93.5379 256.479 134.685C256.479 134.685 271.017 118.179 279.313 108.608C286.618 100.18 300.849 88.1123 310.332 80.0716C311.619 78.9808 312.818 77.9642 313.9 77.0408C318.971 72.7147 329.706 61.867 331.089 60.0666C341.906 80.5585 354.327 109.13 362.824 139.296C368.828 160.614 372.655 181.981 372.841 201.325C373.029 220.764 369.535 236.84 362.224 248.868L355.63 259.72L362.902 270.121C367.352 276.485 374.395 282.698 380.308 287.421L220.465 444.705L60.6222 287.421C66.5352 282.698 73.5782 276.485 78.0285 270.121L85.3009 259.72L78.706 248.868C71.3958 236.84 67.9019 220.764 68.0891 201.325C68.2754 181.981 72.102 160.614 78.1066 139.296C86.603 109.13 99.0244 80.5585 109.842 60.0666C111.225 61.867 121.959 72.7147 127.03 77.0408C128.113 77.9643 129.312 78.981 130.599 80.0718C140.081 88.1125 154.313 100.18 161.618 108.608C169.913 118.179 184.451 134.685 184.451 134.685C175.375 93.5379 159.371 63.4992 145.369 43.5581C138.377 33.6013 131.894 26.1729 127.03 21.1307C124.598 18.6087 122.567 16.6799 121.077 15.3264C120.331 14.6495 119.72 14.116 119.26 13.7236C119.03 13.5274 118.838 13.3664 118.686 13.2404C118.61 13.1774 118.544 13.1231 118.488 13.0775L118.412 13.0157L118.38 12.9896L118.365 12.9778C118.358 12.9723 118.351 12.9668 106.42 28.0805Z" clip-rule="evenodd" fill-rule="evenodd"></path>
</svg>
