<svg width="339" height="339" viewBox="0 0 339 339" fill="none" xmlns="http://www.w3.org/2000/svg">
<path d="M35.5382 30.3476C33.1513 31.0129 30.1014 33.2748 28.908 35.1376C26.6537 38.4639 26.5211 46.9794 26.5211 167.925C26.5211 312.821 25.8581 302.709 36.0686 305.503C42.9641 307.499 288.548 307.499 295.444 305.503C305.654 302.709 304.991 312.821 304.991 167.925C304.991 23.0297 305.654 33.1418 295.444 30.3476C288.946 28.4849 41.638 28.6179 35.5382 30.3476ZM298.228 36.3351C300.085 38.1978 300.35 51.9024 300.35 167.925C300.35 283.948 300.085 297.653 298.228 299.516C296.372 301.378 282.581 301.645 165.756 301.645C48.9313 301.645 35.1404 301.378 33.2839 299.516C31.4275 297.653 31.1623 283.948 31.1623 167.925C31.1623 51.9024 31.4275 38.1978 33.2839 36.3351C35.1404 34.4723 48.9313 34.2062 165.756 34.2062C282.581 34.2062 296.372 34.4723 298.228 36.3351Z" fill="#0450F3"/>
<path d="M145.733 57.3576C120.538 62.1475 100.647 73.324 81.8174 93.4152C62.4571 113.905 53.8377 133.864 52.7769 161.406C51.3182 195.201 61.6614 221.812 85.5303 245.496C101.045 260.93 116.56 270.111 137.246 275.832C150.639 279.558 182.199 279.292 195.99 275.3C230.202 265.454 259.508 239.641 272.105 208.374C275.553 199.858 279.133 184.557 278.205 182.827C277.94 182.295 265.475 181.896 250.623 181.896H223.705L218.268 193.073C208.057 214.228 189.758 225.804 166.419 225.804C122.792 225.804 94.9452 181.896 113.377 142.246C130.483 105.523 179.282 97.4068 207.925 126.546C211.77 130.537 216.146 136.259 217.472 139.186L219.859 144.641H248.767H277.542L274.89 135.726C269.453 117.365 261.364 104.193 246.645 89.2905C231.793 74.2554 214.953 64.2764 195.725 59.3534C182.597 55.894 158.463 54.9626 145.733 57.3576Z" fill="#0450F3"/>
</svg>
