<svg xmlns="http://www.w3.org/2000/svg" fill="none" viewBox="0 0 7340 2186" color="currentColor" style="height:auto"><path fill="currentColor" d="M4029.53 291.505c-.01-38.964 15.28-76.382 42.6-104.238s64.49-43.935 103.56-44.791c39.67.445 77.59 16.368 105.63 44.358s43.97 65.82 44.38 105.383c-.97 38.965-17.23 75.997-45.27 103.142-28.05 27.145-65.66 42.239-104.74 42.04-38.72-.225-75.79-15.672-103.15-42.988-27.37-27.316-42.82-64.295-43.01-102.906m1165.26 315.867c70.57 0 117.01 39.608 117.01 125.52 0 48.442-19.86 129.795-61.87 244.345-57.14 154.013-117.01 330.113-181.01 530.293-28.58-96.74-83.87-250.9-152.16-427.43l-58.58-162.418c-33.15-90.186-50.86-160.569-50.86-206.873 0-63.829 31-99.733 90.58-105.574V576.74h-501.62v28.495c68.44 6.553 123.58 70.382 196.45 264.148l317.74 838.467c42.01 109.99 37.58 209.01-13.14 299.2-37.58 79.21-88.3 118.82-150.16 118.82-77.15 0-117.01-33.05-117.01-101.3 0-26.36 50.86-79.21 50.86-129.79 0-70.39-55.15-103.44-117.01-103.44-85.72 0-142.87 59.41-142.87 149.6 2.14 132.07 114.3 244.34 264.88 244.34 77.15 6.56 139.01-33.05 180.88-68.24 26.57-19.81 59.57-88.05 77.29-120.96a498 498 0 0 0 33.15-81.5c15.43-37.47 24.28-68.25 30.86-88.05 6.57-19.8 19.85-52.86 35.28-103.44l35.29-112.27c95.01-294.92 185.74-552.37 271.46-770.217 50.86-125.378 116.44-199.465 149.58-215.564a194.3 194.3 0 0 1 57.15-19.804V576.74h-361.75zM1710.88 1648.44c-64.01-10.97-119.16-68.25-119.16-189.35V0l-364.17 79.217v30.774c61.72-6.553 123.58 48.442 123.58 165.129v1183.97c0 113.98-61.86 180.51-123.58 189.35-6 .99-11.86 1.71-17.43 2.13a195 195 0 0 1-92.16-16.24c-52.63-24.52-96.14-65.01-124.293-115.69l-168.588-268.85c-35.428-56.5-88.218-100.06-150.5-124.19a310.65 310.65 0 0 0-195.104-9.73l189.732-209.158C812.792 748.279 945.091 646.98 1070.96 605.235V576.74H653.777v28.495c108.153 41.745 101.581 134.211-22.002 279.536L364.749 1195.08V0L.572 79.218v30.774c61.863 0 123.583 61.692 123.583 169.546V1459.09c0 129.93-59.577 180.51-123.583 189.35v28.49h483.332v-28.49c-79.436-10.97-119.155-72.67-119.155-189.35v-217.85l103.725-113.98 251.595 411.47c59.577 99.73 114.297 138.63 203.02 138.63h839.221v-22.51s-23.43-2.14-51.43-6.41m1120.39 3.42v28.49s-247.74 89.19-322.6-61.83a303.7 303.7 0 0 1-31.29-128.23c-68.43 140.76-218.45 215.71-359.75 215.71-178.73 0-306.74-83.64-306.74-266.29.11-45.96 13.94-90.84 39.72-128.94 53-79.22 114.29-120.96 229.59-164.99 57.15-22.08 105.87-37.47 142.87-48.44s85.72-22.08 142.87-33.05l110.3-26.36V905.287c0-220.124-94.87-319.144-227.31-319.144-103.72 0-163.3 68.246-163.3 147.462 0 44.025 30.86 107.853 30.86 154.015 0 61.692-55.15 105.717-132.44 105.717-72.72 0-116.87-59.412-116.87-138.629 0-81.495 39.72-151.878 121.3-213.712 78.26-60.569 174.67-93.136 273.74-92.466 309.74 0 445.18 146.606 449.9 468.46v491.25c1.71 32.06 10.71 160.86 119.15 143.62m-353.89-581.59c-13.29 6.7-44.15 17.67-94.87 37.47l-101.58 37.48c-25.43 11.68-44.14 21.94-81.58 41.74a268.8 268.8 0 0 0-77.29 55c-37.36 42.11-59.14 95.7-61.72 151.87 0 129.94 70.58 200.32 178.73 200.32 55.15 0 108.16-22.08 158.87-63.82 53.01-41.89 79.44-101.3 79.44-173.82zm4086.11 56.99a569.7 569.7 0 0 1-41.53 221.68 570.9 570.9 0 0 1-124.34 188.37 543 543 0 0 1-179.75 125.31 544.3 544.3 0 0 1-214.79 44.18 544.3 544.3 0 0 1-214.8-44.18 542.8 542.8 0 0 1-179.74-125.31c-106.74-109.85-165.51-257.39-163.45-410.33a568.6 568.6 0 0 1 40.83-220.229 569.7 569.7 0 0 1 122.76-187.536c50.33-54.224 111.36-97.487 179.26-127.075a538.9 538.9 0 0 1 215.28-44.861 538.9 538.9 0 0 1 215.28 44.861c67.9 29.588 128.93 72.851 179.26 127.075a561.9 561.9 0 0 1 124.61 187.021 560.65 560.65 0 0 1 41.26 220.744zm-360.75-389.809c-43.72-85.485-101.3-134.923-168.45-148.458-136.58-27.356-257.16 112.555-302.17 335.101a1049 1049 0 0 0-14.28 303.046 835.9 835.9 0 0 0 83.29 291.07c43.72 85.49 101.29 135.07 168.44 148.46 136.59 27.5 260.74-118.54 306.03-343.22 38.44-188.07 19.29-416.738-72.86-585.999M4303.7 1459.09V576.597h-776.79v26.501c103.72 15.387 153.02 93.463 105.87 219.981-242.88 658.091-227.31 628.601-242.88 681.311-15.43-50.57-50.72-175.1-108.16-331.39-57.43-156.3-95.15-259.592-109.44-305.896-59.57-182.653-39.71-250.899 57.15-261.869V576.74h-503.76v28.495c75.15 15.387 141.3 101.299 196.45 255.315l77.29 200.32c84.87 216.28 184.59 515.05 218.02 616.2h167.3c53.87-156.72 269.89-781.614 298.75-845.158 31.14-72.377 66.58-127.23 106.15-165.128 40.37-38.764 93.85-61.03 149.87-62.404 0 0 121.3-5.272 121.3 116.829v737.881c0 123.38-59.58 180.51-121.3 189.35v28.49h481.05v-28.49c-64.01-8.84-116.87-65.97-116.87-189.35M6740.42 1500.99c-19.08-19.1-45.04-29.56-73.02-29.56-27.99 0-53.94 10.46-73.02 29.56-19.15 19.03-29.65 44.91-29.65 72.82s10.5 53.79 29.65 72.82c19.14 19.03 45.03 29.56 73.02 29.56 27.98 0 53.94-10.47 73.02-29.5 19.15-18.59 29.64-44.47 29.64-72.88 0-28.42-10.49-53.79-29.64-72.82m-73.02 155.47c-22.46 0-42.62-8.31-58.27-23.91-14.94-15.8-23.21-36.67-23.21-58.74 0-22.08 8.2-42.88 23.15-58.68 15.71-15.66 35.94-23.97 58.33-23.97s42.62 8.31 58.33 23.91c14.94 15.79 23.21 36.66 23.21 58.74 0 22.07-8.2 42.88-23.15 58.67-15.71 15.67-35.88 23.98-58.33 23.98z"></path><path fill="currentColor" d="M6709.56 1554.02c0-18.96-13.74-29.56-36.76-29.56h-44.27v95.4h22.13v-34.44h15.52l22.58 34.44h24.81l-26.14-39.32c14.18-4.89 22.13-14.15 22.13-26.52m-39.88 14.59h-19.02v-26.51h19.02c10.62 0 16.79 4.88 16.79 13.25 0 8.82-5.72 13.26-16.79 13.26M6494.92 0h844.37L7172.7 288.37l166.59 288.227h-844.37z"></path></svg>