<svg xmlns="http://www.w3.org/2000/svg" viewBox="0 0 283 64" fill="none">
  <path d="M141.04 16c-11.04 0-19 7.2-19 18s8.96 18 20 18c6.67 0 12.55-2.64 16.19-7.09l-7.65-4.42c-2.02 2.21-5.09 3.5-8.54 3.5-4.79 0-8.86-2.5-10.37-6.5h28.02c.22-1.12.35-2.28.35-3.5 0-10.79-7.96-17.99-19-17.99zm-9.46 14.5c1.25-3.99 4.67-6.5 9.45-6.5 4.79 0 8.21 2.51 9.45 6.5h-18.9zm-39.09 3.5c0 6 3.92 10 10 10 4.12 0 7.21-1.87 8.8-4.92l7.68 4.43c-3.18 5.3-9.14 8.49-16.48 8.49-11.05 0-19-7.2-19-18s7.96-18 19-18c7.34 0 13.29 3.19 16.48 8.49l-7.68 4.43c-1.59-3.05-4.68-4.92-8.8-4.92-6.07 0-10 4-10 10zm82.48-29v46h-9v-46h9zM37.59.25l36.95 64H.64l36.95-64zm92.38 5.75l-36.95 64L56.06 6h13.18l23.77 41.17L116.78 6h13.18zm83.45 57.34c3.3 0 6.04-.46 8.2-1.37 2.17-.92 3.85-2.16 5.06-3.73 1.2-1.57 2.02-3.4 2.46-5.48.44-2.09.66-4.32.66-6.69V16h9v30.06c0 3.73-.49 7.17-1.46 10.33-.97 3.16-2.49 5.89-4.55 8.19-2.06 2.3-4.69 4.09-7.88 5.39-3.2 1.3-6.98 1.94-11.36 1.94-4.38 0-8.17-.65-11.36-1.94-3.19-1.3-5.82-3.09-7.88-5.39-2.06-2.3-3.58-5.03-4.55-8.19-.97-3.16-1.46-6.6-1.46-10.33V16h9v30.06c0 2.37.22 4.6.66 6.69.44 2.08 1.26 3.91 2.46 5.48 1.2 1.57 2.89 2.81 5.06 3.73 2.17.91 4.9 1.37 8.2 1.37z" fill="currentColor"/>
</svg>
