<svg xmlns="http://www.w3.org/2000/svg" viewBox="0 0 394 80" fill="none">
  <path d="M261.919 0.0330722H330.547V12.7H303.323V79.339H289.71V12.7H261.919V0.0330722Z" fill="currentColor"/>
  <path d="M149.052 0.0330722V12.7H94.0421V33.0772H138.281V45.7441H94.0421V66.6721H149.052V79.339H80.43V0.0330722H149.052Z" fill="currentColor"/>
  <path d="M183.32 66.6721H232.706V79.339H169.854V0.0330722H183.32V66.6721Z" fill="currentColor"/>
  <path d="M235.532 0.0330722H249.049V79.339H235.532V0.0330722Z" fill="currentColor"/>
  <path d="M261.919 0.0330722H330.547V12.7H303.323V79.339H289.71V12.7H261.919V0.0330722Z" fill="currentColor"/>
  <path fill-rule="evenodd" clip-rule="evenodd" d="M0 0.0330722H11.3861L66.0816 60.5765V0.0330722H79.5978V79.339H68.2116L13.5765 18.7951V79.339H0V0.0330722Z" fill="currentColor"/>
  <path d="M339.17 0.0330722L373.908 45.1467L394 0.0330722H380.084L373.908 18.5023L354.788 0.0330722H339.17Z" fill="currentColor"/>
  <path d="M339.17 79.339L373.908 34.1856L394 79.339H380.084L373.908 60.8297L354.788 79.339H339.17Z" fill="currentColor"/>
</svg>
