<svg xmlns="http://www.w3.org/2000/svg" viewBox="0 0 256 289" fill="none">
  <path d="M128 288.464c-3.975 0-7.685-1.06-11.13-2.915l-35.247-20.936c-5.3-2.915-2.65-3.975-1.06-4.505 7.155-2.385 8.48-2.915 15.9-7.155.795-.53 1.855-.265 2.65.265l27.032 16.166c1.06.53 2.385.53 3.18 0l105.74-61.217c1.06-.53 1.59-1.59 1.59-2.915V83.08c0-1.325-.53-2.385-1.59-2.915L129.325 19.213c-1.06-.53-2.385-.53-3.18 0L20.405 80.165c-1.06.53-1.59 1.855-1.59 2.915v122.17c0 1.06.53 2.385 1.59 2.915l28.887 16.695c15.635 7.95 25.44-1.325 25.44-10.6V93.15c0-1.59 1.325-3.18 3.18-3.18h13.25c1.59 0 3.18 1.325 3.18 3.18v121.11c0 20.936-11.395 33.126-31.27 33.126-6.095 0-10.865 0-24.38-6.625l-27.827-15.9C4.24 221.406 0 214.516 0 207.1V84.93c0-7.42 4.24-14.31 11.13-17.755L116.87 5.957c6.625-3.71 15.635-3.71 22.26 0L244.87 67.174c6.89 3.71 11.13 10.335 11.13 17.755V207.1c0 7.42-4.24 14.575-11.13 17.755L139.13 286.344c-3.445 1.325-7.155 2.12-11.13 2.12z" fill="#539E43"/>
  <path d="M160.36 204.715c-44.258 0-53.533-20.406-53.533-37.366 0-1.59 1.325-3.18 3.18-3.18h13.515c1.59 0 2.915 1.06 2.915 2.65 2.12 13.78 8.215 20.67 36.187 20.67 22.26 0 31.8-5.035 31.8-16.96 0-6.89-2.65-11.925-37.247-15.37-28.887-2.915-46.907-9.275-46.907-32.33 0-21.466 18.02-34.186 48.232-34.186 33.92 0 50.615 11.66 52.74 37.1 0 .795-.265 1.59-.795 2.385-.53.53-1.325 1.06-2.12 1.06h-13.78c-1.325 0-2.65-1.06-2.915-2.385-3.18-14.575-11.395-19.345-33.126-19.345-24.38 0-27.3 8.48-27.3 14.84 0 7.685 3.445 10.07 36.187 14.31 32.33 4.24 47.967 10.335 47.967 33.126-.265 23.32-19.345 36.452-53.003 36.452z" fill="#539E43"/>
</svg>
